  <svg
    width="43"
    height="43"
    viewBox="0 0 43 43"
    fill="none"
    xmlns="http://www.w3.org/2000/svg"
  >
    <path
      d="M27.5473 21.3222L19.1548 12.9296L19.1548 29.7148L27.5473 21.3222ZM42.2344 21.3222C42.2344 24.2247 41.6836 26.9522 40.5821 29.505C39.4806 32.0577 37.9856 34.2783 36.0973 36.1666C34.209 38.0549 31.9884 39.5499 29.4357 40.6514C26.8829 41.7529 24.1553 42.3037 21.2529 42.3037C18.3505 42.3037 15.6229 41.7529 13.0701 40.6514C10.5174 39.5499 8.29684 38.0549 6.40851 36.1666C4.52017 34.2783 3.02524 32.0577 1.92371 29.505C0.822187 26.9522 0.271423 24.2247 0.271423 21.3222C0.271423 18.4198 0.822187 15.6922 1.92371 13.1394C3.02524 10.5867 4.52017 8.36615 6.40851 6.47781C8.29684 4.58948 10.5174 3.09455 13.0701 1.99303C15.6229 0.891499 18.3505 0.340733 21.2529 0.340733C24.1553 0.340733 26.8829 0.891499 29.4357 1.99303C31.9884 3.09455 34.209 4.58948 36.0973 6.47781C37.9856 8.36615 39.4806 10.5867 40.5821 13.1394C41.6836 15.6922 42.2344 18.4198 42.2344 21.3222Z"
      fill="#D9D9D9"
    />
  </svg>