<svg
    width="43"
    height="43"
    viewBox="0 0 43 43"
    fill="none"
    xmlns="http://www.w3.org/2000/svg"
  >
    <path
      d="M15.4527 21.6778L23.8452 30.0704V13.2852L15.4527 21.6778ZM0.765614 21.6778C0.765614 18.7753 1.31638 16.0478 2.41791 13.495C3.51944 10.9423 5.01436 8.72172 6.90269 6.83339C8.79103 4.94505 11.0116 3.45012 13.5643 2.3486C16.1171 1.24707 18.8447 0.696304 21.7471 0.696304C24.6495 0.696304 27.3771 1.24707 29.9299 2.3486C32.4826 3.45012 34.7032 4.94505 36.5915 6.83339C38.4798 8.72172 39.9748 10.9423 41.0763 13.495C42.1778 16.0478 42.7286 18.7753 42.7286 21.6778C42.7286 24.5802 42.1778 27.3078 41.0763 29.8606C39.9748 32.4133 38.4798 34.6339 36.5915 36.5222C34.7032 38.4105 32.4826 39.9054 29.9299 41.007C27.3771 42.1085 24.6495 42.6593 21.7471 42.6593C18.8447 42.6593 16.1171 42.1085 13.5643 41.007C11.0116 39.9054 8.79103 38.4105 6.90269 36.5222C5.01436 34.6339 3.51944 32.4133 2.41791 29.8606C1.31638 27.3078 0.765614 24.5802 0.765614 21.6778Z"
      fill="#D9D9D9"
    />
  </svg>